<svg width="16" height="16" viewBox="0 0 16 16" fill="none" xmlns="http://www.w3.org/2000/svg">
<g clip-path="url(#clip0_1346_2)">
<path fill-rule="evenodd" clip-rule="evenodd" d="M5.99609 2C5.73047 2 5.47656 2.10547 5.28906 2.29297L0.289059 7.29297C-0.101561 7.68359 -0.101561 8.31637 0.289059 8.70707L5.28906 13.7071C5.47656 13.8946 5.73047 14 5.99609 14H14.4961C14.4961 14 14.8281 14.0157 15.1914 13.8321C15.5547 13.6485 15.9961 13.0821 15.9961 12.5001V3.50007C15.9961 2.91804 15.5547 2.35167 15.1914 2.16807C14.8281 1.98448 14.4961 2.0001 14.4961 2.0001L5.99609 2ZM6.99999 5H8.03119C8.2851 5.01172 8.54291 5.12891 8.71869 5.3125L9.99989 6.5937L11.3124 5.3125C11.578 5.08203 11.7577 5.00781 11.9999 5H12.9999V6C12.9999 6.28516 12.9647 6.55078 12.7499 6.75L11.4687 8.0312L12.7187 9.2812C12.9062 9.4687 12.9999 9.73432 12.9999 9.99995V11H11.9999C11.7343 11 11.4687 10.9062 11.2812 10.7187L9.99999 9.4375L8.71879 10.7187C8.53129 10.9062 8.26567 11 8.00004 11H7.00004V9.99995C7.00004 9.73433 7.09379 9.4687 7.28129 9.2812L8.56249 8.0312L7.28129 6.75C7.07035 6.55469 6.9766 6.28125 7.00004 6L6.99999 5Z" fill="#666666"/>
</g>
<defs>
<clipPath id="clip0_1346_2">
<rect width="16" height="16" fill="white"/>
</clipPath>
</defs>
</svg>
