<svg width="16" height="16" viewBox="0 0 16 16" fill="none" xmlns="http://www.w3.org/2000/svg">
<path d="M10.805 10C9.99251 10.1445 9.69951 11.1562 10.305 11.7188L13.305 14.7188C14.262 15.6563 15.6683 14.2188 14.7112 13.2813L11.7112 10.2813C11.4729 10.0391 11.1331 9.93364 10.805 10.0001L10.805 10Z" fill="#666666"/>
<path d="M6.5 0C2.9219 0 0 2.9219 0 6.5C0 10.0781 2.9219 12.9961 6.5 12.9961C10.0781 12.9961 13 10.0781 13 6.5C13 2.9219 10.0781 0 6.5 0ZM6.5 2C8.9961 2 11 4.0039 11 6.5C11 8.9961 8.9961 10.9961 6.5 10.9961C4.0039 10.9961 2 8.9961 2 6.5C2 4.0039 4.0039 2 6.5 2Z" fill="#666666"/>
</svg>
